PathFileType	4	(X/Y/Z)	Patient4_TMGait_0pt3_03_right_09.trc.trc
DataRate	CameraRate	NumFrames	NumMarkers	Units	OrigDataRate	OrigDataStartFrame	OrigNumFrames
52.830188679245	52.830188679245	4	33	mm	52.830188679245	124	       141
Frame#	Time	Sacral			L.Shoulder			Chest			R.Shoulder			Neck			R.ASIS			L.ASIS			R.Thigh.Superior			R.Thigh.Lateral			R.Thigh.Inferior			R.Patella			L.Thigh.Superior			L.Thigh.Lateral			L.Thigh.Inferior			L.Patella			L.Shank.Superior			L.Shank.Lateral			L.Shank.Inferior			R.Shank.Superior			R.Shank.Lateral			R.Shank.Inferior			R.Heel			R.Midfoot.Superior			R.Midfoot.Lateral			R.Toe			L.Heel			L.Midfoot.Lateral			L.Midfoot.Superior			L.Toe			L.Elbow			L.Wrist			R.Elbow			R.Wrist			
		X1	Y1	Z1	X2	Y2	Z2	X3	Y3	Z3	X4	Y4	Z4	X5	Y5	Z5	X6	Y6	Z6	X7	Y7	Z7	X8	Y8	Z8	X9	Y9	Z9	X10	Y10	Z10	X11	Y11	Z11	X12	Y12	Z12	X13	Y13	Z13	X14	Y14	Z14	X15	Y15	Z15	X16	Y16	Z16	X17	Y17	Z17	X18	Y18	Z18	X19	Y19	Z19	X20	Y20	Z20	X21	Y21	Z21	X22	Y22	Z22	X23	Y23	Z23	X24	Y24	Z24	X25	Y25	Z25	X26	Y26	Z26	X27	Y27	Z27	X28	Y28	Z28	X29	Y29	Z29	X30	Y30	Z30	X31	Y31	Z31	X32	Y32	Z32	X33	Y33	Z33	

124	19.378214285714	768.937826568147	1008.564013900794	413.371964819116	1017.393011912382	1424.345940500136	278.486526646881	1067.137022631696	1356.366586951765	461.297519092101	944.903747114194	1440.024408443188	604.829406448966	956.314190604518	1490.135087273626	426.325674998415	963.796431929423	937.939598788573	582.209508144034	1012.445202555344	952.190222393932	311.598681149000	1027.890768835974	752.333241628355	564.095010303528	959.434310463597	636.870472197320	625.371526515846	1051.383209214478	592.228759370565	555.075145238091	1069.125133831120	511.564527128145	570.972988150116	1019.448254501277	728.387628997563	344.498266694808	924.632100681855	623.511047472062	268.452827407583	983.507393010749	536.719987058342	343.914427864798	971.015754197727	467.611550507773	351.370695700521	932.763601276447	400.998073565513	338.897496592585	831.395773038273	301.547353762954	279.475419867089	855.740916282255	184.443240081612	353.426566677207	1052.935524770395	421.534396460776	583.593064978972	993.019861248249	312.341813062688	649.137574053577	1059.438577567531	222.053205831882	601.341981162707	957.235631092985	41.669627933789	577.832469067878	1120.955160339014	108.881178306444	616.429483512411	1041.382746547062	37.191015519702	650.498146583305	1244.718507347063	70.166224995083	642.597305864683	707.226297079279	39.476600870730	388.185101602701	782.971429018890	35.411689186950	309.625603849938	866.972275433084	94.913157811121	339.813683251815	995.213274959831	40.187297033819	312.451428274802	1155.359807037027	1123.894213215935	139.225254743247	1412.483218584601	1099.955978552282	170.513245401346	758.630546009580	1143.105301953472	678.121438735580	708.334840247744	886.223863048217	693.032182311400	
125	19.397142857143	770.187404348517	1007.063323807705	418.636502770045	1015.915980255279	1424.271554528268	284.061366284943	1066.530729942634	1356.171901210361	466.565402292398	944.327221794311	1438.924127344237	610.699652066470	955.126572438361	1489.476678506703	432.141093717449	965.864236899257	936.836505989332	586.475457100174	1013.687099181055	951.895296529007	315.781141834684	1030.272408618901	750.750127714372	567.904793614125	960.451359844182	634.849926161270	627.634294329229	1052.944216700414	590.945165589377	557.697409161664	1069.222292337706	509.565725979143	572.478891759811	1019.325415576587	727.302310184986	347.542254619213	922.734501432595	623.609521144443	271.237259448094	980.860619168480	535.835843357581	345.732213303087	967.698938399634	466.778253563727	352.999814178649	929.066210978114	400.530393288166	340.367801877569	826.767487610081	302.077931402278	280.585038112378	850.577253151021	184.314265335451	353.850688247539	1052.708258968754	419.096668765329	584.826503443376	991.890116401902	310.342651661556	649.892967425808	1056.809520057897	219.672636479085	601.314525914049	951.795312593923	41.888820062628	577.278856492414	1116.638641942030	106.540347791258	616.073171316282	1035.435519884748	36.972621396335	650.627845777902	1239.402049177415	65.701571878685	643.071098037592	701.496691172117	39.539032560196	388.071621215167	777.300393537410	35.388779217778	309.621489303459	861.340981259469	94.911912893608	339.794013937208	989.571589779677	40.089850536053	312.407009570255	1156.144421549871	1125.462141304770	143.925114649849	1413.796421629796	1108.451982657550	174.886820256643	761.019845851222	1139.920648620227	683.215583565626	712.155554677349	882.582934633258	697.314250418728	
126	19.416071428571	771.572085339186	1005.832230253143	424.119236144087	1014.638715558561	1424.425674347189	289.904939303735	1066.145812068292	1356.130987219527	472.090769935605	943.965626720139	1437.934788742324	616.851592171247	954.134119471342	1489.015313635086	438.258189880618	968.120190214323	936.028602538794	591.007018788524	1015.012109478143	951.779913038097	320.215758089547	1032.973820495329	749.616703327350	571.532442199470	962.216801762041	633.310198444811	629.965665497510	1055.011478893230	590.008372068752	560.140267138192	1070.040472443468	507.752177928607	573.954228879792	1019.204148817040	726.346065258951	350.698008990009	920.743094447408	623.907034817883	274.184284534093	978.181404839346	535.122909857026	347.651586373514	964.406473529694	466.094278465901	354.689633943535	925.350567060108	400.258223013760	341.888039624853	822.065095598145	302.841307712514	281.771497492779	845.411348712729	184.344106779814	354.256695527714	1052.891875284599	416.895783074752	585.951738209157	990.969629244325	308.676629221667	650.632980064821	1054.017290445936	217.439974600393	601.074261157362	945.685267802593	42.193654059785	576.572717382420	1111.754897064217	104.363853140227	615.464016657140	1028.900706855863	36.878418536210	650.591712470636	1233.575476338500	61.406850650867	643.217269613590	695.768637123537	39.770788704347	387.919554862138	771.649631917392	35.431287144981	309.606428438339	855.773931588367	94.944339828783	339.725222682517	983.953503063256	39.960057681114	312.346057585851	1156.241285090818	1126.860458723438	148.610518263264	1414.268768720885	1115.639122540203	179.077327168383	763.909151382080	1136.654060538167	689.109835179251	717.148719964302	878.819040441121	702.883032952789	
127	19.435000000000	773.039148440263	1004.928602148553	429.789316413117	1013.603560477241	1424.815973514848	295.969245739884	1065.987691244636	1356.260671653239	477.835341924458	943.830612961341	1437.122135874182	623.220151328142	953.367014472660	1488.784341139887	444.610146471214	970.484876781918	935.538369092155	595.800620571621	1016.333880792665	951.876664847349	324.901492632277	1035.814966976094	748.920072169942	575.002067421147	964.525072301739	632.274379243830	632.457897676730	1057.325679562411	589.374794238859	562.472346340446	1071.329309347798	506.170953099917	575.473923901346	1019.037890434678	725.571340502174	353.968667171655	918.707338440516	624.410618814419	277.269337843648	975.570540246986	534.608362995129	349.658418948594	961.261887038159	465.562146341224	356.400440135679	921.713722379093	400.193575220412	343.431321838835	817.362584312458	303.877013200648	283.030054635214	840.304068720858	184.572323659814	354.625685291368	1053.321621070795	415.001057727133	587.062335215232	990.227636012578	307.355323389351	651.478414532383	1051.160492750940	215.449996832117	600.764287331838	939.311766109269	42.504096611088	575.871616552503	1106.580176959167	102.472305132508	614.745105886013	1022.209893165302	36.871316093932	650.486952915701	1227.587790686187	57.588945715025	643.111419857079	690.059447627554	40.281605070541	387.730084967628	766.026277057135	35.599351400508	309.577134140199	850.304467322147	95.029580209722	339.595629116993	978.354615584232	39.792057506576	312.269036893148	1155.731727231094	1128.081391067979	153.299492679225	1414.036692434312	1121.374289388536	183.137209567039	767.159992090374	1133.506121455464	695.743445115383	723.202059311912	875.145892430508	709.706401526087	
